<svg width="30" height="30" viewBox="0 0 30 30" fill="none" xmlns="http://www.w3.org/2000/svg">
<path d="M15 22.8125C14.7514 22.8125 14.5129 22.9113 14.3371 23.0871C14.1613 23.2629 14.0625 23.5014 14.0625 23.75C14.0625 23.9986 14.1613 24.2371 14.3371 24.4129C14.5129 24.5887 14.7514 24.6875 15 24.6875H22.5C23.0802 24.6875 23.6366 24.457 24.0468 24.0468C24.457 23.6366 24.6875 23.0802 24.6875 22.5V7.5C24.6875 6.91984 24.457 6.36344 24.0468 5.9532C23.6366 5.54297 23.0802 5.3125 22.5 5.3125H15C14.7514 5.3125 14.5129 5.41127 14.3371 5.58709C14.1613 5.7629 14.0625 6.00136 14.0625 6.25C14.0625 6.49864 14.1613 6.7371 14.3371 6.91291C14.5129 7.08873 14.7514 7.1875 15 7.1875H22.5C22.5829 7.1875 22.6624 7.22042 22.721 7.27903C22.7796 7.33763 22.8125 7.41712 22.8125 7.5V22.5C22.8125 22.5829 22.7796 22.6624 22.721 22.721C22.6624 22.7796 22.5829 22.8125 22.5 22.8125H15Z" fill="#F8F8F8"/>
<path fill-rule="evenodd" clip-rule="evenodd" d="M18.1287 17.9562C18.9912 17.9562 19.6912 17.2562 19.6912 16.3937V13.5937C19.6912 12.7312 18.9912 12.0312 18.1287 12.0312H12.3625C12.3545 11.9395 12.3462 11.8479 12.3375 11.7562L12.27 11.0612C12.2461 10.8158 12.1634 10.5797 12.0289 10.373C11.8943 10.1663 11.712 9.99507 11.4972 9.87387C11.2824 9.75268 11.0415 9.68507 10.795 9.67677C10.5486 9.66848 10.3037 9.71974 10.0812 9.82622C8.03807 10.8052 6.18841 12.145 4.62125 13.7812L4.4975 13.91C4.21803 14.2016 4.06201 14.5898 4.06201 14.9937C4.06201 15.3976 4.21803 15.7859 4.4975 16.0775L4.6225 16.2062C6.1893 17.8423 8.03853 19.1821 10.0812 20.1612C10.3037 20.2677 10.5486 20.319 10.795 20.3107C11.0415 20.3024 11.2824 20.2348 11.4972 20.1136C11.712 19.9924 11.8943 19.8212 12.0289 19.6145C12.1634 19.4078 12.2461 19.1717 12.27 18.9262L12.3375 18.2312L12.3625 17.9562H18.1287ZM11.4937 16.0812C11.2552 16.0814 11.0257 16.1725 10.852 16.336C10.6782 16.4995 10.5734 16.7231 10.5587 16.9612C10.535 17.3237 10.5062 17.6875 10.4712 18.05L10.4512 18.2525C8.81947 17.4114 7.33514 16.3108 6.05625 14.9937C7.33508 13.6766 8.81942 12.576 10.4512 11.735L10.4712 11.9375C10.5062 12.3 10.535 12.6625 10.5587 13.0262C10.5734 13.2643 10.6782 13.4879 10.852 13.6514C11.0257 13.8149 11.2552 13.906 11.4937 13.9062H17.8162V16.0812H11.4937Z" fill="#F8F8F8"/>
</svg>
